<mxfile host="app.diagrams.net" agent="Mozilla/5.0 (Windows NT 10.0; Win64; x64) AppleWebKit/537.36 (KHTML, like Gecko) Chrome/136.0.0.0 Safari/537.36" version="27.0.9">
  <diagram name="Page-1" id="4VqU5dPed7CWXqp9l9I1">
    <mxGraphModel dx="1056" dy="581" grid="1" gridSize="10" guides="1" tooltips="1" connect="1" arrows="1" fold="1" page="1" pageScale="1" pageWidth="850" pageHeight="1100" math="0" shadow="0">
      <root>
        <mxCell id="0" />
        <mxCell id="1" parent="0" />
        <mxCell id="1pNEQWMKTyDYFbz3F2On-78" style="edgeStyle=orthogonalEdgeStyle;rounded=0;orthogonalLoop=1;jettySize=auto;html=1;" parent="1" source="1pNEQWMKTyDYFbz3F2On-74" edge="1">
          <mxGeometry relative="1" as="geometry">
            <mxPoint x="160" y="180" as="targetPoint" />
          </mxGeometry>
        </mxCell>
        <mxCell id="1pNEQWMKTyDYFbz3F2On-74" value="University Staff&lt;div&gt;&lt;br&gt;&lt;/div&gt;" style="shape=umlActor;verticalLabelPosition=bottom;verticalAlign=top;html=1;outlineConnect=0;" parent="1" vertex="1">
          <mxGeometry x="140" y="90" width="30" height="60" as="geometry" />
        </mxCell>
        <mxCell id="1pNEQWMKTyDYFbz3F2On-75" value="IT / Service Department" style="rounded=1;whiteSpace=wrap;html=1;" parent="1" vertex="1">
          <mxGeometry x="320" y="100" width="120" height="60" as="geometry" />
        </mxCell>
        <mxCell id="1pNEQWMKTyDYFbz3F2On-76" value="Notification System" style="rounded=1;whiteSpace=wrap;html=1;" parent="1" vertex="1">
          <mxGeometry x="590" y="100" width="120" height="60" as="geometry" />
        </mxCell>
        <mxCell id="1pNEQWMKTyDYFbz3F2On-77" value="" style="endArrow=none;dashed=1;html=1;dashPattern=1 3;strokeWidth=2;rounded=0;" parent="1" edge="1">
          <mxGeometry width="50" height="50" relative="1" as="geometry">
            <mxPoint x="155" y="340" as="sourcePoint" />
            <mxPoint x="154.5" y="150" as="targetPoint" />
          </mxGeometry>
        </mxCell>
        <mxCell id="1pNEQWMKTyDYFbz3F2On-79" value="" style="endArrow=none;dashed=1;html=1;dashPattern=1 3;strokeWidth=2;rounded=0;" parent="1" edge="1">
          <mxGeometry width="50" height="50" relative="1" as="geometry">
            <mxPoint x="380" y="720" as="sourcePoint" />
            <mxPoint x="379.5" y="150" as="targetPoint" />
          </mxGeometry>
        </mxCell>
        <mxCell id="1pNEQWMKTyDYFbz3F2On-80" value="" style="endArrow=none;dashed=1;html=1;dashPattern=1 3;strokeWidth=2;rounded=0;" parent="1" edge="1">
          <mxGeometry width="50" height="50" relative="1" as="geometry">
            <mxPoint x="650" y="720" as="sourcePoint" />
            <mxPoint x="649.5" y="150" as="targetPoint" />
          </mxGeometry>
        </mxCell>
        <mxCell id="1pNEQWMKTyDYFbz3F2On-81" value="Request Decision" style="swimlane;horizontal=0;whiteSpace=wrap;html=1;" parent="1" vertex="1">
          <mxGeometry x="130" y="340" width="580" height="380" as="geometry" />
        </mxCell>
        <mxCell id="1pNEQWMKTyDYFbz3F2On-94" value="" style="endArrow=classic;html=1;rounded=0;" parent="1pNEQWMKTyDYFbz3F2On-81" edge="1">
          <mxGeometry width="50" height="50" relative="1" as="geometry">
            <mxPoint x="250" y="210" as="sourcePoint" />
            <mxPoint x="30" y="210" as="targetPoint" />
          </mxGeometry>
        </mxCell>
        <mxCell id="1pNEQWMKTyDYFbz3F2On-95" value="Decline QA Request" style="edgeLabel;html=1;align=center;verticalAlign=middle;resizable=0;points=[];" parent="1pNEQWMKTyDYFbz3F2On-94" vertex="1" connectable="0">
          <mxGeometry x="0.2273" y="-1" relative="1" as="geometry">
            <mxPoint as="offset" />
          </mxGeometry>
        </mxCell>
        <mxCell id="1pNEQWMKTyDYFbz3F2On-96" value="" style="endArrow=classic;html=1;rounded=0;" parent="1pNEQWMKTyDYFbz3F2On-81" edge="1">
          <mxGeometry width="50" height="50" relative="1" as="geometry">
            <mxPoint x="250" y="240" as="sourcePoint" />
            <mxPoint x="520" y="240" as="targetPoint" />
          </mxGeometry>
        </mxCell>
        <mxCell id="1pNEQWMKTyDYFbz3F2On-97" value="Notify Staff For Declining" style="edgeLabel;html=1;align=center;verticalAlign=middle;resizable=0;points=[];" parent="1pNEQWMKTyDYFbz3F2On-96" vertex="1" connectable="0">
          <mxGeometry x="0.0963" y="-5" relative="1" as="geometry">
            <mxPoint as="offset" />
          </mxGeometry>
        </mxCell>
        <mxCell id="1pNEQWMKTyDYFbz3F2On-98" value="" style="endArrow=classic;html=1;rounded=0;" parent="1pNEQWMKTyDYFbz3F2On-81" edge="1">
          <mxGeometry width="50" height="50" relative="1" as="geometry">
            <mxPoint x="520" y="290" as="sourcePoint" />
            <mxPoint x="30" y="290" as="targetPoint" />
          </mxGeometry>
        </mxCell>
        <mxCell id="1pNEQWMKTyDYFbz3F2On-99" value="QA Declining Notification" style="edgeLabel;html=1;align=center;verticalAlign=middle;resizable=0;points=[];" parent="1pNEQWMKTyDYFbz3F2On-98" vertex="1" connectable="0">
          <mxGeometry x="0.2245" relative="1" as="geometry">
            <mxPoint as="offset" />
          </mxGeometry>
        </mxCell>
        <mxCell id="1pNEQWMKTyDYFbz3F2On-82" value="" style="endArrow=classic;html=1;rounded=0;" parent="1" edge="1">
          <mxGeometry width="50" height="50" relative="1" as="geometry">
            <mxPoint x="160" y="220" as="sourcePoint" />
            <mxPoint x="380" y="220" as="targetPoint" />
          </mxGeometry>
        </mxCell>
        <mxCell id="1pNEQWMKTyDYFbz3F2On-83" value="QA Request" style="edgeLabel;html=1;align=center;verticalAlign=middle;resizable=0;points=[];" parent="1pNEQWMKTyDYFbz3F2On-82" vertex="1" connectable="0">
          <mxGeometry x="-0.2636" y="-1" relative="1" as="geometry">
            <mxPoint as="offset" />
          </mxGeometry>
        </mxCell>
        <mxCell id="1pNEQWMKTyDYFbz3F2On-86" value="" style="endArrow=classic;html=1;rounded=0;" parent="1" edge="1">
          <mxGeometry width="50" height="50" relative="1" as="geometry">
            <mxPoint x="380" y="370" as="sourcePoint" />
            <mxPoint x="160" y="370" as="targetPoint" />
          </mxGeometry>
        </mxCell>
        <mxCell id="1pNEQWMKTyDYFbz3F2On-87" value="Accept QA Request" style="edgeLabel;html=1;align=center;verticalAlign=middle;resizable=0;points=[];" parent="1pNEQWMKTyDYFbz3F2On-86" vertex="1" connectable="0">
          <mxGeometry x="0.2273" y="-1" relative="1" as="geometry">
            <mxPoint as="offset" />
          </mxGeometry>
        </mxCell>
        <mxCell id="1pNEQWMKTyDYFbz3F2On-88" value="" style="endArrow=classic;html=1;rounded=0;" parent="1" edge="1">
          <mxGeometry width="50" height="50" relative="1" as="geometry">
            <mxPoint x="380" y="400" as="sourcePoint" />
            <mxPoint x="650" y="400" as="targetPoint" />
          </mxGeometry>
        </mxCell>
        <mxCell id="1pNEQWMKTyDYFbz3F2On-89" value="Notify Staff For Acceptance" style="edgeLabel;html=1;align=center;verticalAlign=middle;resizable=0;points=[];" parent="1pNEQWMKTyDYFbz3F2On-88" vertex="1" connectable="0">
          <mxGeometry x="0.0963" y="-5" relative="1" as="geometry">
            <mxPoint as="offset" />
          </mxGeometry>
        </mxCell>
        <mxCell id="1pNEQWMKTyDYFbz3F2On-90" value="" style="endArrow=classic;html=1;rounded=0;" parent="1" edge="1">
          <mxGeometry width="50" height="50" relative="1" as="geometry">
            <mxPoint x="650" y="450" as="sourcePoint" />
            <mxPoint x="160" y="450" as="targetPoint" />
          </mxGeometry>
        </mxCell>
        <mxCell id="1pNEQWMKTyDYFbz3F2On-91" value="QA Acceptance Notification" style="edgeLabel;html=1;align=center;verticalAlign=middle;resizable=0;points=[];" parent="1pNEQWMKTyDYFbz3F2On-90" vertex="1" connectable="0">
          <mxGeometry x="0.2245" relative="1" as="geometry">
            <mxPoint as="offset" />
          </mxGeometry>
        </mxCell>
        <mxCell id="1pNEQWMKTyDYFbz3F2On-92" value="Accepted" style="text;html=1;align=center;verticalAlign=middle;resizable=0;points=[];autosize=1;strokeColor=none;fillColor=none;" parent="1" vertex="1">
          <mxGeometry x="145" y="338" width="70" height="30" as="geometry" />
        </mxCell>
        <mxCell id="1pNEQWMKTyDYFbz3F2On-93" value="Declined" style="text;html=1;align=center;verticalAlign=middle;resizable=0;points=[];autosize=1;strokeColor=none;fillColor=none;" parent="1" vertex="1">
          <mxGeometry x="145" y="488" width="70" height="30" as="geometry" />
        </mxCell>
        <mxCell id="-RWXg-gQDkHWEenioYFn-1" value="" style="shape=flexArrow;endArrow=none;html=1;rounded=0;startFill=0;entryX=0.029;entryY=1.001;entryDx=0;entryDy=0;entryPerimeter=0;" edge="1" parent="1" target="1pNEQWMKTyDYFbz3F2On-81">
          <mxGeometry width="50" height="50" relative="1" as="geometry">
            <mxPoint x="150" y="220" as="sourcePoint" />
            <mxPoint x="150" y="690" as="targetPoint" />
          </mxGeometry>
        </mxCell>
      </root>
    </mxGraphModel>
  </diagram>
</mxfile>
